<svg id="visual" viewBox="0 0 900 250" width="900" height="250" xmlns="http://www.w3.org/2000/svg" xmlns:xlink="http://www.w3.org/1999/xlink" version="1.1"><path d="M0 144L10.7 137.8C21.3 131.7 42.7 119.3 64.2 115.7C85.7 112 107.3 117 128.8 116.2C150.3 115.3 171.7 108.7 193 115.2C214.3 121.7 235.7 141.3 257 145C278.3 148.7 299.7 136.3 321.2 128.8C342.7 121.3 364.3 118.7 385.8 120.7C407.3 122.7 428.7 129.3 450 130C471.3 130.7 492.7 125.3 514.2 121.7C535.7 118 557.3 116 578.8 122.2C600.3 128.3 621.7 142.7 643 135.3C664.3 128 685.7 99 707 96.7C728.3 94.3 749.7 118.7 771.2 121.3C792.7 124 814.3 105 835.8 97.2C857.3 89.3 878.7 92.7 889.3 94.3L900 96L900 251L889.3 251C878.7 251 857.3 251 835.8 251C814.3 251 792.7 251 771.2 251C749.7 251 728.3 251 707 251C685.7 251 664.3 251 643 251C621.7 251 600.3 251 578.8 251C557.3 251 535.7 251 514.2 251C492.7 251 471.3 251 450 251C428.7 251 407.3 251 385.8 251C364.3 251 342.7 251 321.2 251C299.7 251 278.3 251 257 251C235.7 251 214.3 251 193 251C171.7 251 150.3 251 128.8 251C107.3 251 85.7 251 64.2 251C42.7 251 21.3 251 10.7 251L0 251Z" fill="#93c5fd"></path><path d="M0 160L10.7 150.7C21.3 141.3 42.7 122.7 64.2 115.2C85.7 107.7 107.3 111.3 128.8 111C150.3 110.7 171.7 106.3 193 113.2C214.3 120 235.7 138 257 138.8C278.3 139.7 299.7 123.3 321.2 119C342.7 114.7 364.3 122.3 385.8 126.2C407.3 130 428.7 130 450 137.7C471.3 145.3 492.7 160.7 514.2 161.5C535.7 162.3 557.3 148.7 578.8 143.3C600.3 138 621.7 141 643 138.2C664.3 135.3 685.7 126.7 707 131.8C728.3 137 749.7 156 771.2 165.8C792.7 175.7 814.3 176.3 835.8 167.7C857.3 159 878.7 141 889.3 132L900 123L900 251L889.3 251C878.7 251 857.3 251 835.8 251C814.3 251 792.7 251 771.2 251C749.7 251 728.3 251 707 251C685.7 251 664.3 251 643 251C621.7 251 600.3 251 578.8 251C557.3 251 535.7 251 514.2 251C492.7 251 471.3 251 450 251C428.7 251 407.3 251 385.8 251C364.3 251 342.7 251 321.2 251C299.7 251 278.3 251 257 251C235.7 251 214.3 251 193 251C171.7 251 150.3 251 128.8 251C107.3 251 85.7 251 64.2 251C42.7 251 21.3 251 10.7 251L0 251Z" fill="#7299d1"></path><path d="M0 170L10.7 171.7C21.3 173.3 42.7 176.7 64.2 175.2C85.7 173.7 107.3 167.3 128.8 164.3C150.3 161.3 171.7 161.7 193 163C214.3 164.3 235.7 166.7 257 171.5C278.3 176.3 299.7 183.7 321.2 182.2C342.7 180.7 364.3 170.3 385.8 164.7C407.3 159 428.7 158 450 160.3C471.3 162.7 492.7 168.3 514.2 166.7C535.7 165 557.3 156 578.8 158.8C600.3 161.7 621.7 176.3 643 177.8C664.3 179.3 685.7 167.7 707 158C728.3 148.3 749.7 140.7 771.2 145.5C792.7 150.3 814.3 167.7 835.8 171.8C857.3 176 878.7 167 889.3 162.5L900 158L900 251L889.3 251C878.7 251 857.3 251 835.8 251C814.3 251 792.7 251 771.2 251C749.7 251 728.3 251 707 251C685.7 251 664.3 251 643 251C621.7 251 600.3 251 578.8 251C557.3 251 535.7 251 514.2 251C492.7 251 471.3 251 450 251C428.7 251 407.3 251 385.8 251C364.3 251 342.7 251 321.2 251C299.7 251 278.3 251 257 251C235.7 251 214.3 251 193 251C171.7 251 150.3 251 128.8 251C107.3 251 85.7 251 64.2 251C42.7 251 21.3 251 10.7 251L0 251Z" fill="#5270a6"></path><path d="M0 173L10.7 172.3C21.3 171.7 42.7 170.3 64.2 169.5C85.7 168.7 107.3 168.3 128.8 174C150.3 179.7 171.7 191.3 193 193.2C214.3 195 235.7 187 257 182.7C278.3 178.3 299.7 177.7 321.2 180.5C342.7 183.3 364.3 189.7 385.8 194.2C407.3 198.7 428.7 201.3 450 200.5C471.3 199.7 492.7 195.3 514.2 193.3C535.7 191.3 557.3 191.7 578.8 187.2C600.3 182.7 621.7 173.3 643 173.8C664.3 174.3 685.7 184.7 707 184C728.3 183.3 749.7 171.7 771.2 172.7C792.7 173.7 814.3 187.3 835.8 195.3C857.3 203.3 878.7 205.7 889.3 206.8L900 208L900 251L889.3 251C878.7 251 857.3 251 835.8 251C814.3 251 792.7 251 771.2 251C749.7 251 728.3 251 707 251C685.7 251 664.3 251 643 251C621.7 251 600.3 251 578.8 251C557.3 251 535.7 251 514.2 251C492.7 251 471.3 251 450 251C428.7 251 407.3 251 385.8 251C364.3 251 342.7 251 321.2 251C299.7 251 278.3 251 257 251C235.7 251 214.3 251 193 251C171.7 251 150.3 251 128.8 251C107.3 251 85.7 251 64.2 251C42.7 251 21.3 251 10.7 251L0 251Z" fill="#34497c"></path><path d="M0 217L10.7 216.5C21.3 216 42.7 215 64.2 216.2C85.7 217.3 107.3 220.7 128.8 220.2C150.3 219.7 171.7 215.3 193 212.2C214.3 209 235.7 207 257 203.7C278.3 200.3 299.7 195.7 321.2 194.5C342.7 193.3 364.3 195.7 385.8 197.5C407.3 199.3 428.7 200.7 450 204C471.3 207.3 492.7 212.7 514.2 215.3C535.7 218 557.3 218 578.8 218.2C600.3 218.3 621.7 218.7 643 217C664.3 215.3 685.7 211.7 707 207.2C728.3 202.7 749.7 197.3 771.2 199.3C792.7 201.3 814.3 210.7 835.8 213.2C857.3 215.7 878.7 211.3 889.3 209.2L900 207L900 251L889.3 251C878.7 251 857.3 251 835.8 251C814.3 251 792.7 251 771.2 251C749.7 251 728.3 251 707 251C685.7 251 664.3 251 643 251C621.7 251 600.3 251 578.8 251C557.3 251 535.7 251 514.2 251C492.7 251 471.3 251 450 251C428.7 251 407.3 251 385.8 251C364.3 251 342.7 251 321.2 251C299.7 251 278.3 251 257 251C235.7 251 214.3 251 193 251C171.7 251 150.3 251 128.8 251C107.3 251 85.7 251 64.2 251C42.7 251 21.3 251 10.7 251L0 251Z" fill="#172554"></path></svg>